<svg width="270" height="180" viewBox="0 0 270 180" fill="none" xmlns="http://www.w3.org/2000/svg">
<path d="M248.818 135.145C259.667 116.116 268.492 92.7821 268.492 67.9137C268.492 55.4218 264.189 41.2218 256.983 29.9295C250.681 20.0552 238.996 7.29781 219.099 2.5943C193.918 -3.35748 168.405 2.19293 147.905 6.65333C140.497 8.26513 133.499 9.78747 127.505 10.5403C114.063 12.2272 99.861 11.9801 87.6527 11.5524H87.6447C85.7346 11.4853 83.8685 11.4142 82.0672 11.3454C74.354 11.0501 56.5905 10.7668 56.5905 10.7668C55.6211 7.02947 53.4112 3.96757 50.6527 2.55417C49.484 1.96532 48.2082 1.66684 46.9188 1.68063C45.6294 1.69442 44.3593 2.02014 43.2017 2.63386C39.4074 4.49107 37.588 8.61776 38.4481 13.2765C32.3687 16.1068 26.4293 21.7403 22.8271 26.1704C19.7343 29.9736 17.1116 35.9787 14.5743 41.786C11.9909 47.7005 9.31994 53.8163 6.64684 56.2859C5.9925 56.8854 5.41381 57.5752 4.92562 58.3375C4.91713 58.3375 4.90864 58.3323 4.89962 58.3306C4.34066 58.209 3.76434 58.2149 3.20763 58.3481C2.65092 58.4812 2.12611 58.7387 1.66685 59.1038C1.20759 59.469 0.824019 59.9339 0.540739 60.4686C0.257459 61.0034 0.0807214 61.5962 0.0218613 62.2091C-0.0369987 62.822 0.0233178 63.4414 0.198943 64.0276C0.374568 64.6138 0.661624 65.1539 1.0417 65.6132C1.42178 66.0726 1.88649 66.441 2.40603 66.6948C2.92557 66.9487 3.48848 67.0824 4.05864 67.0874C4.54128 68.7123 5.19313 70.2728 6.00165 71.7388C11.3807 81.745 19.8898 87.9657 27.3971 93.453C31.5356 96.4782 35.4439 99.336 38.472 102.527C40.7437 105.006 42.7198 107.781 44.3541 110.789C44.3721 110.827 44.396 110.86 44.4156 110.897C47.4893 116.455 49.9274 123.236 50.3826 129.712C50.9583 137.895 52.3203 159.987 52.7485 166.966C51.2693 167.475 49.8817 168.253 48.646 169.268C47.7266 170.02 47.0521 171.067 46.7199 172.26C46.3877 173.453 46.4151 174.729 46.798 175.904C47.1615 177.103 47.8684 178.146 48.8166 178.882C49.7647 179.618 50.905 180.01 52.0725 180H77.215C78.025 180.001 78.8253 179.81 79.5597 179.441C80.2941 179.071 80.9446 178.533 81.4655 177.862C87.026 170.717 100.896 152.302 109.674 135.594C143.654 135.558 166.86 134.225 180.397 131.523C182.413 145.298 185.076 160.995 186.05 166.656C185.209 167.081 184.415 167.604 183.68 168.215C182.674 169.053 181.936 170.21 181.57 171.524C181.203 172.839 181.226 174.244 181.636 175.543C182.045 176.842 182.821 177.97 183.853 178.769C184.886 179.568 186.124 179.998 187.394 179.999H210.961C212.355 179.997 213.706 179.48 214.79 178.533C222.562 171.72 236.783 156.157 248.642 135.455C248.707 135.357 248.766 135.253 248.818 135.145V135.145ZM82.7384 69.6705C75.1366 86.886 61.7558 100.812 47.5021 106.492C45.8655 103.725 43.9567 101.157 41.8089 98.8343C38.4747 95.32 34.3944 92.3378 30.0744 89.1795C22.6462 83.7484 14.9627 78.1326 10.1323 69.1465C7.19176 63.6769 8.29007 61.5588 9.75131 60.209C13.2033 57.0198 15.9677 50.6908 18.8949 43.989C21.29 38.5045 23.7668 32.8337 26.416 29.5774C29.6218 25.6342 35.323 20.1813 40.84 17.7903C41.382 17.5546 41.8693 17.1928 42.2673 16.7306C45.2832 21.4944 52.4662 20.792 54.2692 16.4543C54.3949 16.1427 54.4882 15.8169 54.5472 15.483C62.1394 16.55 74.2368 16.2083 81.899 16.503C83.1979 16.5529 84.5371 16.6034 85.8932 16.6527C91.4809 33.6095 90.3788 52.3674 82.7384 69.6705ZM229.255 116.937C224.804 116.043 202.711 112.432 184.181 124.168C183.3 117.696 182.699 112.313 182.699 109.683C182.699 108.998 182.447 108.342 182 107.858C181.552 107.374 180.945 107.103 180.311 107.103C179.678 107.103 179.071 107.374 178.623 107.858C178.175 108.342 177.924 108.998 177.924 109.683C177.924 112.738 178.645 119.034 179.668 126.421C168.107 128.755 149.042 130.054 121.715 130.363C127.155 126.793 131.493 121.668 134.661 115.003C139.073 105.728 141.023 93.6422 140.3 80.0535C139.486 64.744 128.6 44.1226 119.852 27.5551C117.826 23.7185 115.886 20.0437 114.27 16.7914C118.871 16.5879 123.497 16.2381 128.054 15.6659C134.245 14.8895 141.337 13.3459 148.845 11.7095C168.907 7.34426 193.875 1.9114 218.076 7.63325C251.326 15.4956 263.716 48.7802 263.716 67.9137C263.716 89.9353 256.475 110.746 247.132 128.23C244.389 123.797 238.673 118.83 229.255 116.937V116.937Z" fill="black"/>
<path d="M32.0017 38.3084C22.3919 34.2954 16.8025 45.5656 22.9183 52.1842C26.2626 55.8016 29.4418 64.1836 36.7085 63.4884C48.2537 62.3863 47.1906 44.6444 32.0017 38.3084ZM27.6484 49.2129C27.0785 49.2129 26.5214 49.0279 26.0475 48.6811C25.5737 48.3344 25.2044 47.8416 24.9863 47.265C24.7682 46.6884 24.7112 46.0539 24.8223 45.4418C24.9335 44.8296 25.2079 44.2674 25.6109 43.8261C26.0139 43.3847 26.5273 43.0842 27.0862 42.9624C27.6452 42.8407 28.2245 42.9032 28.751 43.142C29.2775 43.3809 29.7275 43.7853 30.0442 44.3042C30.3608 44.8232 30.5298 45.4333 30.5298 46.0574C30.5296 46.8942 30.226 47.6968 29.6857 48.2885C29.1453 48.8803 28.4125 49.2128 27.6484 49.2129V49.2129Z" fill="black"/>
<path d="M135.331 140.532C135.301 140.405 135.233 140.292 135.136 140.212C135.04 140.132 134.921 140.089 134.799 140.091C132.193 140.12 118.399 140.275 112.55 140.3C112.46 140.299 112.372 140.324 112.293 140.37C112.214 140.417 112.148 140.485 112.101 140.567C108.342 146.964 101.747 156.918 97.3921 163.398C97.3204 163.505 97.285 163.635 97.2918 163.766C97.2986 163.897 97.3472 164.022 97.4295 164.12L103.515 171.422L103.45 171.527C103.429 171.567 103.402 171.608 103.38 171.648C102.905 172.481 102.646 173.434 102.63 174.41C102.613 175.385 102.84 176.348 103.286 177.199C103.732 178.049 104.382 178.757 105.169 179.25C105.955 179.742 106.85 180.001 107.762 180H133.641C134.325 180 135.003 179.853 135.633 179.568C136.264 179.283 136.835 178.866 137.313 178.341C137.791 177.816 138.166 177.195 138.416 176.512C138.666 175.83 138.787 175.101 138.77 174.368C138.683 170.593 138.456 164.665 137.892 158.234C137.426 152.276 136.57 146.361 135.331 140.532Z" fill="black"/>
<path d="M262.923 119.302C262.888 119.191 262.824 119.095 262.738 119.026C262.652 118.957 262.549 118.918 262.443 118.914C262.336 118.911 262.231 118.943 262.142 119.007C262.053 119.071 261.983 119.163 261.942 119.271C261.238 121.157 260.447 123.003 259.574 124.802C252.27 139.868 243.413 153.956 233.177 166.787C233.09 166.895 233.043 167.035 233.045 167.179C233.047 167.324 233.099 167.462 233.19 167.566L234.959 169.621C234.439 170.298 234.003 171.049 233.662 171.853C233.295 172.741 233.139 173.716 233.207 174.689C233.275 175.661 233.565 176.599 234.051 177.415C234.483 178.191 235.086 178.835 235.804 179.287C236.522 179.739 237.331 179.984 238.158 180H265.024C265.688 180 266.345 179.853 266.956 179.57C267.567 179.286 268.121 178.871 268.584 178.348C269.048 177.826 269.411 177.206 269.654 176.527C269.897 175.847 270.014 175.121 269.999 174.391C269.733 162.641 268.499 136.601 262.923 119.302Z" fill="black"/>
</svg>
